<?xml version="1.0" encoding="UTF-8" standalone="no"?>
<!DOCTYPE svg PUBLIC "-//W3C//DTD SVG 1.1//EN" "http://www.w3.org/Graphics/SVG/1.1/DTD/svg11.dtd">
<svg width="100%" height="100%" viewBox="0 0 155 153" version="1.1" xmlns="http://www.w3.org/2000/svg" xmlns:xlink="http://www.w3.org/1999/xlink" xml:space="preserve" xmlns:serif="http://www.serif.com/" style="fill-rule:evenodd;clip-rule:evenodd;stroke-linejoin:round;stroke-miterlimit:2;">
    <path d="M63,91.96l-61.25,20.04l0,-71l61.25,20.04l0,-31.54l90,0l0,94l-90,0l0,-31.54Zm65.5,-46.96c-7.175,-0 -13,5.825 -13,13c0,7.175 5.825,13 13,13c7.175,-0 13,-5.825 13,-13c0,-7.175 -5.825,-13 -13,-13Zm-38,-0c-7.175,-0 -13,5.825 -13,13c0,7.175 5.825,13 13,13c7.175,-0 13,-5.825 13,-13c0,-7.175 -5.825,-13 -13,-13Z" style="fill:#004b71;"/>
</svg>
